<?xml version="1.0" encoding="UTF-8" standalone="no"?>
<svg
   xmlns:dc="http://purl.org/dc/elements/1.1/"
   xmlns:cc="http://creativecommons.org/ns#"
   xmlns:rdf="http://www.w3.org/1999/02/22-rdf-syntax-ns#"
   xmlns:svg="http://www.w3.org/2000/svg"
   xmlns="http://www.w3.org/2000/svg"
   xmlns:sodipodi="http://sodipodi.sourceforge.net/DTD/sodipodi-0.dtd"
   xmlns:inkscape="http://www.inkscape.org/namespaces/inkscape"
   id="weather-icon-clear"
   class="weather-icon weather-icon-white clear"
   viewBox="0 0 64 64"
   version="1.1"
   sodipodi:docname="clear-night.svg"
   inkscape:version="0.92.1 r15371">
  <metadata
     id="metadata12">
    <rdf:RDF>
      <cc:Work
         rdf:about="">
        <dc:format>image/svg+xml</dc:format>
        <dc:type
           rdf:resource="http://purl.org/dc/dcmitype/StillImage" />
        <dc:title></dc:title>
      </cc:Work>
    </rdf:RDF>
  </metadata>
  <defs
     id="defs10" />
  <sodipodi:namedview
     pagecolor="#ffffff"
     bordercolor="#666666"
     borderopacity="1"
     objecttolerance="10"
     gridtolerance="10"
     guidetolerance="10"
     inkscape:pageopacity="0"
     inkscape:pageshadow="2"
     inkscape:window-width="1920"
     inkscape:window-height="995"
     id="namedview8"
     showgrid="false"
     inkscape:zoom="7.375"
     inkscape:cx="88.817966"
     inkscape:cy="32.450935"
     inkscape:window-x="1907"
     inkscape:window-y="-13"
     inkscape:window-maximized="1"
     inkscape:current-layer="weather-icon-clear" />
  <style
     id="style2">.st0{fill:#F4A71D;}</style>
  <g
     transform="matrix(0.08040272,0,0,0.08040272,14.913703,15.16843)"
     id="g4"
     style="fill:#f4a71d;fill-opacity:1">
    <path
       inkscape:connector-curvature="0"
       d="m 428.756,300.104 c -0.664,-3.81 -2.334,-7.047 -4.996,-9.713 -5.9,-5.903 -12.752,-7.142 -20.554,-3.716 -20.937,9.708 -42.641,14.558 -65.097,14.558 -28.171,0 -54.152,-6.94 -77.943,-20.838 -23.791,-13.894 -42.631,-32.736 -56.525,-56.53 -13.899,-23.793 -20.844,-49.773 -20.844,-77.945 0,-21.888 4.333,-42.683 12.991,-62.384 8.66,-19.7 21.176,-36.973 37.543,-51.82 6.283,-5.898 7.713,-12.752 4.287,-20.557 C 234.382,3.358 228.577,-0.352 220.203,0.027 191.082,1.168 163.483,7.691 137.406,19.583 111.33,31.478 88.917,47.13 70.168,66.548 c -18.747,19.414 -33.595,42.399 -44.54,68.95 -10.942,26.553 -16.416,54.39 -16.416,83.511 0,29.694 5.806,58.054 17.416,85.082 11.613,27.028 27.218,50.344 46.824,69.949 19.604,19.599 42.92,35.207 69.951,46.822 27.028,11.607 55.384,17.415 85.075,17.415 42.64,0 81.987,-11.563 118.054,-34.69 36.069,-23.124 63.05,-54.006 80.944,-92.645 1.524,-3.423 1.951,-7.036 1.28,-10.838 z m -122.191,84.064 c -24.646,11.711 -50.676,17.562 -78.087,17.562 -24.743,0 -48.39,-4.853 -70.947,-14.558 C 134.977,377.467 115.56,364.477 99.285,348.2 83.014,331.928 70.026,312.514 60.315,289.959 50.608,267.403 45.754,243.756 45.754,219.011 c 0,-40.922 12.135,-77.466 36.403,-109.636 24.266,-32.165 55.531,-53.959 93.788,-65.379 -19.795,31.405 -29.694,65.379 -29.694,101.926 0,34.644 8.564,66.715 25.697,96.223 17.128,29.499 40.446,52.811 69.95,69.948 29.499,17.129 61.565,25.694 96.211,25.694 10.656,0 21.129,-0.855 31.408,-2.57 -17.318,20.938 -38.307,37.255 -62.952,48.951 z"
       id="path2"
       style="fill:#f4a71d;fill-opacity:1" />
  </g>
  <g
     transform="matrix(0.14402894,0,0,0.14402894,7.5588282,12.863303)"
     id="g6" />
  <g
     transform="matrix(0.14402894,0,0,0.14402894,7.5588282,12.863303)"
     id="g8" />
  <g
     transform="matrix(0.14402894,0,0,0.14402894,7.5588282,12.863303)"
     id="g10" />
  <g
     transform="matrix(0.14402894,0,0,0.14402894,7.5588282,12.863303)"
     id="g12" />
  <g
     transform="matrix(0.14402894,0,0,0.14402894,7.5588282,12.863303)"
     id="g14" />
  <g
     transform="matrix(0.14402894,0,0,0.14402894,7.5588282,12.863303)"
     id="g16" />
  <g
     transform="matrix(0.14402894,0,0,0.14402894,7.5588282,12.863303)"
     id="g18" />
  <g
     transform="matrix(0.14402894,0,0,0.14402894,7.5588282,12.863303)"
     id="g20" />
  <g
     transform="matrix(0.14402894,0,0,0.14402894,7.5588282,12.863303)"
     id="g22" />
  <g
     transform="matrix(0.14402894,0,0,0.14402894,7.5588282,12.863303)"
     id="g24" />
  <g
     transform="matrix(0.14402894,0,0,0.14402894,7.5588282,12.863303)"
     id="g26" />
  <g
     transform="matrix(0.14402894,0,0,0.14402894,7.5588282,12.863303)"
     id="g28" />
  <g
     transform="matrix(0.14402894,0,0,0.14402894,7.5588282,12.863303)"
     id="g30" />
  <g
     transform="matrix(0.14402894,0,0,0.14402894,7.5588282,12.863303)"
     id="g32" />
  <g
     transform="matrix(0.14402894,0,0,0.14402894,7.5588282,12.863303)"
     id="g34" />
</svg>
