<?xml version="1.0" encoding="UTF-8" standalone="no"?>
<svg
   xmlns:dc="http://purl.org/dc/elements/1.1/"
   xmlns:cc="http://creativecommons.org/ns#"
   xmlns:rdf="http://www.w3.org/1999/02/22-rdf-syntax-ns#"
   xmlns:svg="http://www.w3.org/2000/svg"
   xmlns="http://www.w3.org/2000/svg"
   xmlns:sodipodi="http://sodipodi.sourceforge.net/DTD/sodipodi-0.dtd"
   xmlns:inkscape="http://www.inkscape.org/namespaces/inkscape"
   id="weather-icon-sleet"
   class="weather-icon weather-icon-white sleet"
   viewBox="0 0 64 64"
   version="1.1"
   sodipodi:docname="hail.svg"
   inkscape:version="0.92.1 r15371">
  <metadata
     id="metadata3740">
    <rdf:RDF>
      <cc:Work
         rdf:about="">
        <dc:format>image/svg+xml</dc:format>
        <dc:type
           rdf:resource="http://purl.org/dc/dcmitype/StillImage" />
        <dc:title />
      </cc:Work>
    </rdf:RDF>
  </metadata>
  <defs
     id="defs3738">
    <clipPath
       clipPathUnits="userSpaceOnUse"
       id="clipPath3829">
      <rect
         style="fill:#2885c7;fill-opacity:1"
         id="rect3831"
         width="4.410429"
         height="4.6021876"
         x="18.504625"
         y="54.220352" />
    </clipPath>
    <clipPath
       clipPathUnits="userSpaceOnUse"
       id="clipPath3829-5">
      <rect
         style="fill:#2885c7;fill-opacity:1"
         id="rect3831-2"
         width="4.410429"
         height="4.6021876"
         x="18.504625"
         y="54.220352" />
    </clipPath>
    <clipPath
       clipPathUnits="userSpaceOnUse"
       id="clipPath3829-0">
      <rect
         style="fill:#2885c7;fill-opacity:1"
         id="rect3831-7"
         width="4.410429"
         height="4.6021876"
         x="18.504625"
         y="54.220352" />
    </clipPath>
    <clipPath
       clipPathUnits="userSpaceOnUse"
       id="clipPath3829-8">
      <rect
         style="fill:#2885c7;fill-opacity:1"
         id="rect3831-4"
         width="4.410429"
         height="4.6021876"
         x="18.504625"
         y="54.220352" />
    </clipPath>
  </defs>
  <sodipodi:namedview
     pagecolor="#ffffff"
     bordercolor="#666666"
     borderopacity="1"
     objecttolerance="10"
     gridtolerance="10"
     guidetolerance="10"
     inkscape:pageopacity="0"
     inkscape:pageshadow="2"
     inkscape:window-width="2736"
     inkscape:window-height="1699"
     id="namedview3736"
     showgrid="false"
     inkscape:pagecheckerboard="true"
     inkscape:zoom="20.85965"
     inkscape:cx="33.705491"
     inkscape:cy="32.916719"
     inkscape:window-x="-13"
     inkscape:window-y="-13"
     inkscape:window-maximized="1"
     inkscape:current-layer="weather-icon-sleet" />
  <style
     id="style3728">.st0{fill:#72B8D4;} .st1{fill:#FFFFFF;}</style>
  <path
     style="fill:#72b8d4"
     inkscape:connector-curvature="0"
     id="path3730"
     d="m 22.3,57.4 -2.8,0.9 -0.9,-2.7 2.8,-0.9 z m 0.3,-4.7 c -0.1,0 -0.3,0 -0.4,-0.1 -0.6,-0.2 -0.9,-0.9 -0.7,-1.6 l 5,-12.3 c 0.2,-0.6 0.9,-0.9 1.6,-0.7 0.6,0.3 0.9,0.9 0.6,1.6 l -5,12.3 c -0.2,0.5 -0.7,0.8 -1.1,0.8 z m 2.01,3.144 2.752,-0.918 0.918,2.75 -2.75,0.92 z M 28.6,53 c -0.2,0 -0.3,0 -0.5,-0.1 -0.6,-0.2 -0.9,-0.9 -0.6,-1.6 l 5,-12.3 c 0.2,-0.6 0.9,-0.9 1.6,-0.6 0.6,0.2 0.9,0.9 0.7,1.6 l -5,12.3 C 29.5,52.7 29.1,53 28.6,53 Z m 2.11,2.828 2.75,-0.918 0.92,2.75 -2.752,0.92 z M 34.6,53 c -0.1,0 -0.3,0 -0.5,-0.1 -0.6,-0.2 -0.9,-0.9 -0.6,-1.6 l 5,-12.3 c 0.2,-0.6 0.9,-0.9 1.6,-0.6 0.6,0.2 0.9,0.9 0.6,1.6 l -5,12.3 C 35.5,52.7 35.1,53 34.6,53 Z"
     class="st0"
     clip-path="url(#clipPath3829)"
     transform="matrix(0.92930462,-0.72960118,0.36946884,1.779473,-13.207399,-39.686618)" />
  <path
     style="fill:#ffffff"
     inkscape:connector-curvature="0"
     id="path3732"
     d="m 50.9,24.2 c 0.1,-0.8 0.2,-1.6 0.2,-2.4 0,-7.4 -6,-13.4 -13.4,-13.4 -4.5,0 -8.7,2.3 -11.2,6 -1.2,-0.5 -2.4,-0.8 -3.6,-0.8 -5.1,0 -9.3,4.2 -9.3,9.3 v 0.3 c -4.1,1.4 -7,5.2 -7,9.7 0,5.6 4.6,10.2 10.2,10.2 h 5 c 1.6,0 1.5,-2.7 0,-2.7 h -5 c -4.2,0 -7.5,-3.4 -7.5,-7.5 0,-3.6 2.5,-6.7 6.1,-7.4 L 16.7,25.2 16.4,24 c -0.1,-0.4 -0.1,-0.8 -0.1,-1.1 0,-3.6 3,-6.6 6.6,-6.6 1.2,0 2.4,0.3 3.5,1 l 1.2,0.7 0.7,-1.3 c 1.9,-3.5 5.5,-5.7 9.5,-5.7 5.9,0 10.7,4.8 10.7,10.7 0,1.1 -0.2,2.2 -0.5,3.3 l -0.6,1.9 2.1,-0.1 h 0.3 c 3.8,0 6.8,3.1 6.8,6.8 0,3.8 -3.1,6.8 -6.8,6.8 h -5.7 c -1.7,0 -2,2.7 0,2.7 h 5.7 c 5.2,0 9.5,-4.3 9.5,-9.5 -0.1,-4.8 -3.8,-8.8 -8.4,-9.4 z"
     class="st1" />
  <path
     style="fill:#72b8d4"
     inkscape:connector-curvature="0"
     id="path3730-3"
     d="m 22.3,57.4 -2.8,0.9 -0.9,-2.7 2.8,-0.9 z m 0.3,-4.7 c -0.1,0 -0.3,0 -0.4,-0.1 -0.6,-0.2 -0.9,-0.9 -0.7,-1.6 l 5,-12.3 c 0.2,-0.6 0.9,-0.9 1.6,-0.7 0.6,0.3 0.9,0.9 0.6,1.6 l -5,12.3 c -0.2,0.5 -0.7,0.8 -1.1,0.8 z m 2.01,3.144 2.752,-0.918 0.918,2.75 -2.75,0.92 z M 28.6,53 c -0.2,0 -0.3,0 -0.5,-0.1 -0.6,-0.2 -0.9,-0.9 -0.6,-1.6 l 5,-12.3 c 0.2,-0.6 0.9,-0.9 1.6,-0.6 0.6,0.2 0.9,0.9 0.7,1.6 l -5,12.3 C 29.5,52.7 29.1,53 28.6,53 Z m 2.11,2.828 2.75,-0.918 0.92,2.75 -2.752,0.92 z M 34.6,53 c -0.1,0 -0.3,0 -0.5,-0.1 -0.6,-0.2 -0.9,-0.9 -0.6,-1.6 l 5,-12.3 c 0.2,-0.6 0.9,-0.9 1.6,-0.6 0.6,0.2 0.9,0.9 0.6,1.6 l -5,12.3 C 35.5,52.7 35.1,53 34.6,53 Z"
     class="st0"
     clip-path="url(#clipPath3829-5)"
     transform="matrix(0.92930462,-0.72960118,0.36946884,1.779473,-0.53846579,-39.988976)" />
  <path
     style="fill:#72b8d4"
     inkscape:connector-curvature="0"
     id="path3730-8"
     d="m 22.3,57.4 -2.8,0.9 -0.9,-2.7 2.8,-0.9 z m 0.3,-4.7 c -0.1,0 -0.3,0 -0.4,-0.1 -0.6,-0.2 -0.9,-0.9 -0.7,-1.6 l 5,-12.3 c 0.2,-0.6 0.9,-0.9 1.6,-0.7 0.6,0.3 0.9,0.9 0.6,1.6 l -5,12.3 c -0.2,0.5 -0.7,0.8 -1.1,0.8 z m 2.01,3.144 2.752,-0.918 0.918,2.75 -2.75,0.92 z M 28.6,53 c -0.2,0 -0.3,0 -0.5,-0.1 -0.6,-0.2 -0.9,-0.9 -0.6,-1.6 l 5,-12.3 c 0.2,-0.6 0.9,-0.9 1.6,-0.6 0.6,0.2 0.9,0.9 0.7,1.6 l -5,12.3 C 29.5,52.7 29.1,53 28.6,53 Z m 2.11,2.828 2.75,-0.918 0.92,2.75 -2.752,0.92 z M 34.6,53 c -0.1,0 -0.3,0 -0.5,-0.1 -0.6,-0.2 -0.9,-0.9 -0.6,-1.6 l 5,-12.3 c 0.2,-0.6 0.9,-0.9 1.6,-0.6 0.6,0.2 0.9,0.9 0.6,1.6 l -5,12.3 C 35.5,52.7 35.1,53 34.6,53 Z"
     class="st0"
     clip-path="url(#clipPath3829-0)"
     transform="matrix(0.92930462,-0.72960118,0.36946884,1.779473,-6.7623854,-45.215462)" />
  <path
     style="fill:#72b8d4"
     inkscape:connector-curvature="0"
     id="path3730-89"
     d="m 22.3,57.4 -2.8,0.9 -0.9,-2.7 2.8,-0.9 z m 0.3,-4.7 c -0.1,0 -0.3,0 -0.4,-0.1 -0.6,-0.2 -0.9,-0.9 -0.7,-1.6 l 5,-12.3 c 0.2,-0.6 0.9,-0.9 1.6,-0.7 0.6,0.3 0.9,0.9 0.6,1.6 l -5,12.3 c -0.2,0.5 -0.7,0.8 -1.1,0.8 z m 2.01,3.144 2.752,-0.918 0.918,2.75 -2.75,0.92 z M 28.6,53 c -0.2,0 -0.3,0 -0.5,-0.1 -0.6,-0.2 -0.9,-0.9 -0.6,-1.6 l 5,-12.3 c 0.2,-0.6 0.9,-0.9 1.6,-0.6 0.6,0.2 0.9,0.9 0.7,1.6 l -5,12.3 C 29.5,52.7 29.1,53 28.6,53 Z m 2.11,2.828 2.75,-0.918 0.92,2.75 -2.752,0.92 z M 34.6,53 c -0.1,0 -0.3,0 -0.5,-0.1 -0.6,-0.2 -0.9,-0.9 -0.6,-1.6 l 5,-12.3 c 0.2,-0.6 0.9,-0.9 1.6,-0.6 0.6,0.2 0.9,0.9 0.6,1.6 l -5,12.3 C 35.5,52.7 35.1,53 34.6,53 Z"
     class="st0"
     clip-path="url(#clipPath3829-8)"
     transform="matrix(0.92930462,-0.72960118,0.36946884,1.779473,-7.0816715,-34.024058)" />
</svg>
