<?xml version="1.0" encoding="UTF-8" standalone="no"?>
<svg
   xmlns:dc="http://purl.org/dc/elements/1.1/"
   xmlns:cc="http://creativecommons.org/ns#"
   xmlns:rdf="http://www.w3.org/1999/02/22-rdf-syntax-ns#"
   xmlns:svg="http://www.w3.org/2000/svg"
   xmlns="http://www.w3.org/2000/svg"
   xmlns:sodipodi="http://sodipodi.sourceforge.net/DTD/sodipodi-0.dtd"
   xmlns:inkscape="http://www.inkscape.org/namespaces/inkscape"
   id="weather-icon-sleet"
   class="weather-icon weather-icon-white sleet"
   viewBox="0 0 64 64"
   version="1.1"
   sodipodi:docname="sleet - Copy (3).svg"
   inkscape:version="0.92.1 r15371">
  <metadata
     id="metadata240">
    <rdf:RDF>
      <cc:Work
         rdf:about="">
        <dc:format>image/svg+xml</dc:format>
        <dc:type
           rdf:resource="http://purl.org/dc/dcmitype/StillImage" />
        <dc:title></dc:title>
      </cc:Work>
    </rdf:RDF>
  </metadata>
  <defs
     id="defs238">
    <clipPath
       clipPathUnits="userSpaceOnUse"
       id="clipPath275">
      <rect
         style="fill:#2885c7;fill-opacity:1;stroke-width:1.86790371"
         id="rect277"
         width="20.230444"
         height="17.977291"
         x="20.566021"
         y="35.907486" />
    </clipPath>
    <clipPath
       clipPathUnits="userSpaceOnUse"
       id="clipPath645">
      <rect
         style="fill:#2885c7;fill-opacity:1"
         id="rect647"
         width="19.79899"
         height="4.0748525"
         x="-35.987938"
         y="49.775517"
         transform="rotate(-67.670659)" />
    </clipPath>
    <clipPath
       clipPathUnits="userSpaceOnUse"
       id="clipPath645-3">
      <rect
         style="fill:#2885c7;fill-opacity:1"
         id="rect647-7"
         width="19.79899"
         height="4.0748525"
         x="-35.987938"
         y="49.775517"
         transform="rotate(-67.670659)" />
    </clipPath>
    <clipPath
       clipPathUnits="userSpaceOnUse"
       id="clipPath115">
      <rect
         style="fill:#2885c7;fill-opacity:1"
         id="rect117"
         width="4.7939444"
         height="4.7460051"
         x="19.415474"
         y="46.118587" />
    </clipPath>
    <clipPath
       clipPathUnits="userSpaceOnUse"
       id="clipPath119">
      <rect
         style="fill:#2885c7;fill-opacity:1"
         id="rect121"
         width="4.7939444"
         height="4.7460051"
         x="19.415474"
         y="46.118587" />
    </clipPath>
    <clipPath
       clipPathUnits="userSpaceOnUse"
       id="clipPath123">
      <rect
         style="fill:#2885c7;fill-opacity:1"
         id="rect125"
         width="4.7939444"
         height="4.7460051"
         x="19.415474"
         y="46.118587"
         transform="rotate(52.57)" />
    </clipPath>
    <clipPath
       clipPathUnits="userSpaceOnUse"
       id="clipPath127">
      <rect
         style="fill:#2885c7;fill-opacity:1"
         id="rect129"
         width="4.7939444"
         height="4.7460051"
         x="19.415474"
         y="46.118587"
         transform="rotate(52.533)" />
    </clipPath>
    <clipPath
       clipPathUnits="userSpaceOnUse"
       id="clipPath131">
      <rect
         style="fill:#2885c7;fill-opacity:1"
         id="rect133"
         width="4.7939444"
         height="4.7460051"
         x="19.415474"
         y="46.118587" />
    </clipPath>
    <clipPath
       clipPathUnits="userSpaceOnUse"
       id="clipPath135">
      <rect
         style="fill:#2885c7;fill-opacity:1"
         id="rect137"
         width="4.7939444"
         height="4.7460051"
         x="19.415474"
         y="46.118587"
         transform="rotate(52.533)" />
    </clipPath>
    <clipPath
       clipPathUnits="userSpaceOnUse"
       id="clipPath139">
      <rect
         style="fill:#2885c7;fill-opacity:1"
         id="rect141"
         width="4.7939444"
         height="4.7460051"
         x="19.415474"
         y="46.118587" />
    </clipPath>
    <clipPath
       clipPathUnits="userSpaceOnUse"
       id="clipPath115-8">
      <rect
         style="fill:#2885c7;fill-opacity:1"
         id="rect117-4"
         width="4.7939444"
         height="4.7460051"
         x="19.415474"
         y="46.118587" />
    </clipPath>
    <clipPath
       clipPathUnits="userSpaceOnUse"
       id="clipPath119-7">
      <rect
         style="fill:#2885c7;fill-opacity:1"
         id="rect121-2"
         width="4.7939444"
         height="4.7460051"
         x="19.415474"
         y="46.118587" />
    </clipPath>
    <clipPath
       clipPathUnits="userSpaceOnUse"
       id="clipPath123-6">
      <rect
         style="fill:#2885c7;fill-opacity:1"
         id="rect125-6"
         width="4.7939444"
         height="4.7460051"
         x="19.415474"
         y="46.118587"
         transform="rotate(52.57)" />
    </clipPath>
    <clipPath
       clipPathUnits="userSpaceOnUse"
       id="clipPath127-5">
      <rect
         style="fill:#2885c7;fill-opacity:1"
         id="rect129-3"
         width="4.7939444"
         height="4.7460051"
         x="19.415474"
         y="46.118587"
         transform="rotate(52.533)" />
    </clipPath>
    <clipPath
       clipPathUnits="userSpaceOnUse"
       id="clipPath131-6">
      <rect
         style="fill:#2885c7;fill-opacity:1"
         id="rect133-7"
         width="4.7939444"
         height="4.7460051"
         x="19.415474"
         y="46.118587" />
    </clipPath>
    <clipPath
       clipPathUnits="userSpaceOnUse"
       id="clipPath135-3">
      <rect
         style="fill:#2885c7;fill-opacity:1"
         id="rect137-2"
         width="4.7939444"
         height="4.7460051"
         x="19.415474"
         y="46.118587"
         transform="rotate(52.533)" />
    </clipPath>
    <clipPath
       clipPathUnits="userSpaceOnUse"
       id="clipPath139-2">
      <rect
         style="fill:#2885c7;fill-opacity:1"
         id="rect141-0"
         width="4.7939444"
         height="4.7460051"
         x="19.415474"
         y="46.118587" />
    </clipPath>
    <clipPath
       clipPathUnits="userSpaceOnUse"
       id="clipPath115-7">
      <rect
         style="fill:#2885c7;fill-opacity:1"
         id="rect117-5"
         width="4.7939444"
         height="4.7460051"
         x="19.415474"
         y="46.118587" />
    </clipPath>
    <clipPath
       clipPathUnits="userSpaceOnUse"
       id="clipPath119-4">
      <rect
         style="fill:#2885c7;fill-opacity:1"
         id="rect121-6"
         width="4.7939444"
         height="4.7460051"
         x="19.415474"
         y="46.118587" />
    </clipPath>
    <clipPath
       clipPathUnits="userSpaceOnUse"
       id="clipPath123-61">
      <rect
         style="fill:#2885c7;fill-opacity:1"
         id="rect125-4"
         width="4.7939444"
         height="4.7460051"
         x="19.415474"
         y="46.118587"
         transform="rotate(52.57)" />
    </clipPath>
    <clipPath
       clipPathUnits="userSpaceOnUse"
       id="clipPath127-0">
      <rect
         style="fill:#2885c7;fill-opacity:1"
         id="rect129-0"
         width="4.7939444"
         height="4.7460051"
         x="19.415474"
         y="46.118587"
         transform="rotate(52.533)" />
    </clipPath>
    <clipPath
       clipPathUnits="userSpaceOnUse"
       id="clipPath131-62">
      <rect
         style="fill:#2885c7;fill-opacity:1"
         id="rect133-4"
         width="4.7939444"
         height="4.7460051"
         x="19.415474"
         y="46.118587" />
    </clipPath>
    <clipPath
       clipPathUnits="userSpaceOnUse"
       id="clipPath135-5">
      <rect
         style="fill:#2885c7;fill-opacity:1"
         id="rect137-8"
         width="4.7939444"
         height="4.7460051"
         x="19.415474"
         y="46.118587"
         transform="rotate(52.533)" />
    </clipPath>
    <clipPath
       clipPathUnits="userSpaceOnUse"
       id="clipPath139-1">
      <rect
         style="fill:#2885c7;fill-opacity:1"
         id="rect141-3"
         width="4.7939444"
         height="4.7460051"
         x="19.415474"
         y="46.118587" />
    </clipPath>
    <clipPath
       clipPathUnits="userSpaceOnUse"
       id="clipPath115-3">
      <rect
         style="fill:#2885c7;fill-opacity:1"
         id="rect117-9"
         width="4.7939444"
         height="4.7460051"
         x="19.415474"
         y="46.118587" />
    </clipPath>
    <clipPath
       clipPathUnits="userSpaceOnUse"
       id="clipPath119-0">
      <rect
         style="fill:#2885c7;fill-opacity:1"
         id="rect121-65"
         width="4.7939444"
         height="4.7460051"
         x="19.415474"
         y="46.118587" />
    </clipPath>
    <clipPath
       clipPathUnits="userSpaceOnUse"
       id="clipPath123-0">
      <rect
         style="fill:#2885c7;fill-opacity:1"
         id="rect125-1"
         width="4.7939444"
         height="4.7460051"
         x="19.415474"
         y="46.118587"
         transform="rotate(52.57)" />
    </clipPath>
    <clipPath
       clipPathUnits="userSpaceOnUse"
       id="clipPath127-55">
      <rect
         style="fill:#2885c7;fill-opacity:1"
         id="rect129-1"
         width="4.7939444"
         height="4.7460051"
         x="19.415474"
         y="46.118587"
         transform="rotate(52.533)" />
    </clipPath>
    <clipPath
       clipPathUnits="userSpaceOnUse"
       id="clipPath131-0">
      <rect
         style="fill:#2885c7;fill-opacity:1"
         id="rect133-0"
         width="4.7939444"
         height="4.7460051"
         x="19.415474"
         y="46.118587" />
    </clipPath>
    <clipPath
       clipPathUnits="userSpaceOnUse"
       id="clipPath135-9">
      <rect
         style="fill:#2885c7;fill-opacity:1"
         id="rect137-0"
         width="4.7939444"
         height="4.7460051"
         x="19.415474"
         y="46.118587"
         transform="rotate(52.533)" />
    </clipPath>
    <clipPath
       clipPathUnits="userSpaceOnUse"
       id="clipPath139-7">
      <rect
         style="fill:#2885c7;fill-opacity:1"
         id="rect141-6"
         width="4.7939444"
         height="4.7460051"
         x="19.415474"
         y="46.118587" />
    </clipPath>
  </defs>
  <sodipodi:namedview
     pagecolor="#ffffff"
     bordercolor="#666666"
     borderopacity="1"
     objecttolerance="10"
     gridtolerance="10"
     guidetolerance="10"
     inkscape:pageopacity="0"
     inkscape:pageshadow="2"
     inkscape:window-width="2736"
     inkscape:window-height="1699"
     id="namedview236"
     showgrid="false"
     inkscape:pagecheckerboard="true"
     inkscape:zoom="14.75"
     inkscape:cx="38.86424"
     inkscape:cy="35.665984"
     inkscape:window-x="-13"
     inkscape:window-y="-13"
     inkscape:window-maximized="1"
     inkscape:current-layer="weather-icon-sleet" />
  <style
     id="style228">.st0{fill:#72B8D4;} .st1{fill:#FFFFFF;}</style>
  <path
     style="fill:#72b8d4"
     inkscape:connector-curvature="0"
     id="path230"
     d="m 22.3,57.4 -2.8,0.9 -0.9,-2.7 2.8,-0.9 z m 0.3,-4.7 c -0.1,0 -0.3,0 -0.4,-0.1 -0.6,-0.2 -0.9,-0.9 -0.7,-1.6 l 5,-12.3 c 0.2,-0.6 0.9,-0.9 1.6,-0.7 0.6,0.3 0.9,0.9 0.6,1.6 l -5,12.3 c -0.2,0.5 -0.7,0.8 -1.1,0.8 z m 2.01,3.144 2.752,-0.918 0.918,2.75 -2.75,0.92 z M 28.6,53 c -0.2,0 -0.3,0 -0.5,-0.1 -0.6,-0.2 -0.9,-0.9 -0.6,-1.6 l 5,-12.3 c 0.2,-0.6 0.9,-0.9 1.6,-0.6 0.6,0.2 0.9,0.9 0.7,1.6 l -5,12.3 C 29.5,52.7 29.1,53 28.6,53 Z m 2.11,2.828 2.75,-0.918 0.92,2.75 -2.752,0.92 z M 34.6,53 c -0.1,0 -0.3,0 -0.5,-0.1 -0.6,-0.2 -0.9,-0.9 -0.6,-1.6 l 5,-12.3 c 0.2,-0.6 0.9,-0.9 1.6,-0.6 0.6,0.2 0.9,0.9 0.6,1.6 l -5,12.3 C 35.5,52.7 35.1,53 34.6,53 Z"
     class="st0"
     clip-path="url(#clipPath645)" />
  <path
     style="fill:#ffffff"
     inkscape:connector-curvature="0"
     id="path232"
     d="m 50.9,24.2 c 0.1,-0.8 0.2,-1.6 0.2,-2.4 0,-7.4 -6,-13.4 -13.4,-13.4 -4.5,0 -8.7,2.3 -11.2,6 -1.2,-0.5 -2.4,-0.8 -3.6,-0.8 -5.1,0 -9.3,4.2 -9.3,9.3 v 0.3 c -4.1,1.4 -7,5.2 -7,9.7 0,5.6 4.6,10.2 10.2,10.2 h 5 c 1.6,0 1.5,-2.7 0,-2.7 h -5 c -4.2,0 -7.5,-3.4 -7.5,-7.5 0,-3.6 2.5,-6.7 6.1,-7.4 L 16.7,25.2 16.4,24 c -0.1,-0.4 -0.1,-0.8 -0.1,-1.1 0,-3.6 3,-6.6 6.6,-6.6 1.2,0 2.4,0.3 3.5,1 l 1.2,0.7 0.7,-1.3 c 1.9,-3.5 5.5,-5.7 9.5,-5.7 5.9,0 10.7,4.8 10.7,10.7 0,1.1 -0.2,2.2 -0.5,3.3 l -0.6,1.9 2.1,-0.1 h 0.3 c 3.8,0 6.8,3.1 6.8,6.8 0,3.8 -3.1,6.8 -6.8,6.8 h -5.7 c -1.7,0 -2,2.7 0,2.7 h 5.7 c 5.2,0 9.5,-4.3 9.5,-9.5 -0.1,-4.8 -3.8,-8.8 -8.4,-9.4 z"
     class="st1" />
  <path
     transform="translate(-3.028,-5.58)"
     style="fill:#72b8d4"
     inkscape:connector-curvature="0"
     id="path230-5"
     d="m 22.3,57.4 -2.8,0.9 -0.9,-2.7 2.8,-0.9 z m 0.3,-4.7 c -0.1,0 -0.3,0 -0.4,-0.1 -0.6,-0.2 -0.9,-0.9 -0.7,-1.6 l 5,-12.3 c 0.2,-0.6 0.9,-0.9 1.6,-0.7 0.6,0.3 0.9,0.9 0.6,1.6 l -5,12.3 c -0.2,0.5 -0.7,0.8 -1.1,0.8 z m 2.01,3.144 2.752,-0.918 0.918,2.75 -2.75,0.92 z M 28.6,53 c -0.2,0 -0.3,0 -0.5,-0.1 -0.6,-0.2 -0.9,-0.9 -0.6,-1.6 l 5,-12.3 c 0.2,-0.6 0.9,-0.9 1.6,-0.6 0.6,0.2 0.9,0.9 0.7,1.6 l -5,12.3 C 29.5,52.7 29.1,53 28.6,53 Z m 2.11,2.828 2.75,-0.918 0.92,2.75 -2.752,0.92 z M 34.6,53 c -0.1,0 -0.3,0 -0.5,-0.1 -0.6,-0.2 -0.9,-0.9 -0.6,-1.6 l 5,-12.3 c 0.2,-0.6 0.9,-0.9 1.6,-0.6 0.6,0.2 0.9,0.9 0.6,1.6 l -5,12.3 C 35.5,52.7 35.1,53 34.6,53 Z"
     class="st0"
     clip-path="url(#clipPath645-3)" />
  <path
     transform="translate(7.0845257,-12.164593)"
     style="fill:#72b8d4"
     inkscape:connector-curvature="0"
     id="path84"
     d="m 39.2,41 c 0.7,-0.9 0.5,-2.2 -0.4,-2.9 -0.9,-0.7 -2.2,-0.5 -2.9,0.4 -0.7,0.9 -0.5,2.2 0.4,2.9 0.9,0.7 2.2,0.5 2.9,-0.4 z"
     class="st0"
     clip-path="url(#clipPath139)" />
  <circle
     style="fill:#72b8d4"
     r="2.0999999"
     id="ellipse86"
     cy="46.550381"
     cx="-14.491513"
     class="st0"
     transform="rotate(-52.533,-8.7824659,-13.260084)"
     clip-path="url(#clipPath135)" />
  <path
     transform="translate(7.0845257,-12.164593)"
     style="fill:#72b8d4"
     inkscape:connector-curvature="0"
     id="path88"
     d="m 39.2,58.1 c 0.7,-0.9 0.5,-2.2 -0.4,-2.9 -0.9,-0.7 -2.2,-0.5 -2.9,0.4 -0.7,0.9 -0.5,2.2 0.4,2.9 0.9,0.7 2.2,0.6 2.9,-0.4 z"
     class="st0"
     clip-path="url(#clipPath131)" />
  <circle
     style="fill:#72b8d4"
     r="2.0999999"
     id="ellipse90"
     cy="56.946503"
     cx="-28.073774"
     class="st0"
     transform="rotate(-52.533,-8.7824659,-13.260084)"
     clip-path="url(#clipPath127)" />
  <circle
     style="fill:#72b8d4"
     r="2.0999999"
     id="ellipse92"
     cy="55.168217"
     cx="-18.638052"
     class="st0"
     transform="rotate(-52.57,-8.7724451,-13.254247)"
     clip-path="url(#clipPath123)" />
  <path
     transform="translate(7.0845257,-12.164593)"
     style="fill:#ffffff"
     inkscape:connector-curvature="0"
     id="path96"
     d="m 50.9,22.3 c 0.2,-0.8 0.2,-1.6 0.2,-2.4 0,-7.4 -6,-13.4 -13.4,-13.4 -4.5,0 -8.7,2.3 -11.2,6 -1.2,-0.5 -2.4,-0.8 -3.6,-0.8 -5.1,0 -9.3,4.2 -9.3,9.3 v 0.3 c -4.1,1.4 -7,5.3 -7,9.7 0,5.6 4.6,10.2 10.2,10.2 h 5 c 1.6,0 1.5,-2.7 0,-2.7 h -5 c -4.2,0 -7.5,-3.4 -7.5,-7.5 0,-3.6 2.5,-6.7 6,-7.4 l 1.3,-0.2 -0.2,-1.3 c -0.1,-0.4 -0.1,-0.7 -0.1,-1.1 0,-3.6 3,-6.6 6.6,-6.6 1.2,0 2.4,0.3 3.5,1 l 1.2,0.7 0.7,-1.3 c 1.9,-3.5 5.5,-5.7 9.5,-5.7 5.9,0 10.7,4.8 10.7,10.7 0,1.1 -0.2,2.2 -0.5,3.3 l -0.6,1.9 2.1,-0.1 h 0.3 c 3.8,0 6.8,3.1 6.8,6.8 0,3.8 -3.1,6.8 -6.8,6.8 h -5.7 c -1.7,0 -2,2.7 0,2.7 h 5.7 c 5.2,0 9.5,-4.3 9.5,-9.5 -0.1,-4.8 -3.8,-8.8 -8.4,-9.4 z"
     class="st1"
     clip-path="url(#clipPath115)" />
  <path
     transform="translate(4.4617482,-5.5656106)"
     style="fill:#72b8d4"
     inkscape:connector-curvature="0"
     id="path84-3"
     d="m 39.2,41 c 0.7,-0.9 0.5,-2.2 -0.4,-2.9 -0.9,-0.7 -2.2,-0.5 -2.9,0.4 -0.7,0.9 -0.5,2.2 0.4,2.9 0.9,0.7 2.2,0.5 2.9,-0.4 z"
     class="st0"
     clip-path="url(#clipPath139-2)" />
  <circle
     style="fill:#72b8d4"
     r="2.0999999"
     id="ellipse86-8"
     cy="46.550381"
     cx="-14.491513"
     class="st0"
     transform="rotate(-52.533,-3.4080027,-7.3032876)"
     clip-path="url(#clipPath135-3)" />
  <path
     transform="translate(4.4617482,-5.5656106)"
     style="fill:#72b8d4"
     inkscape:connector-curvature="0"
     id="path88-0"
     d="m 39.2,58.1 c 0.7,-0.9 0.5,-2.2 -0.4,-2.9 -0.9,-0.7 -2.2,-0.5 -2.9,0.4 -0.7,0.9 -0.5,2.2 0.4,2.9 0.9,0.7 2.2,0.6 2.9,-0.4 z"
     class="st0"
     clip-path="url(#clipPath131-6)" />
  <circle
     style="fill:#72b8d4"
     r="2.0999999"
     id="ellipse90-1"
     cy="56.946503"
     cx="-28.073774"
     class="st0"
     transform="rotate(-52.533,-3.4080027,-7.3032876)"
     clip-path="url(#clipPath127-5)" />
  <circle
     style="fill:#72b8d4"
     r="2.0999999"
     id="ellipse92-3"
     cy="55.168217"
     cx="-18.638052"
     class="st0"
     transform="rotate(-52.57,-3.403418,-7.2996127)"
     clip-path="url(#clipPath123-6)" />
  <path
     transform="translate(7.0572921,-9.0541423)"
     style="fill:#72b8d4"
     inkscape:connector-curvature="0"
     id="path94-7"
     d="m 23.4,49.6 c 0.7,-0.9 0.5,-2.2 -0.4,-2.9 -0.9,-0.7 -2.2,-0.5 -2.9,0.4 -0.7,0.9 -0.5,2.2 0.4,2.9 0.9,0.7 2.2,0.5 2.9,-0.4 z m 21.5,0 C 45.6,48.7 45.4,47.4 44.5,46.7 43.6,46 42.3,46.2 41.6,47.1 41,48 41.1,49.3 42,50 c 0.9,0.7 2.2,0.5 2.9,-0.4 z"
     class="st0"
     clip-path="url(#clipPath119-7)" />
  <path
     transform="translate(4.4617482,-5.5656106)"
     style="fill:#ffffff"
     inkscape:connector-curvature="0"
     id="path96-4"
     d="m 50.9,22.3 c 0.2,-0.8 0.2,-1.6 0.2,-2.4 0,-7.4 -6,-13.4 -13.4,-13.4 -4.5,0 -8.7,2.3 -11.2,6 -1.2,-0.5 -2.4,-0.8 -3.6,-0.8 -5.1,0 -9.3,4.2 -9.3,9.3 v 0.3 c -4.1,1.4 -7,5.3 -7,9.7 0,5.6 4.6,10.2 10.2,10.2 h 5 c 1.6,0 1.5,-2.7 0,-2.7 h -5 c -4.2,0 -7.5,-3.4 -7.5,-7.5 0,-3.6 2.5,-6.7 6,-7.4 l 1.3,-0.2 -0.2,-1.3 c -0.1,-0.4 -0.1,-0.7 -0.1,-1.1 0,-3.6 3,-6.6 6.6,-6.6 1.2,0 2.4,0.3 3.5,1 l 1.2,0.7 0.7,-1.3 c 1.9,-3.5 5.5,-5.7 9.5,-5.7 5.9,0 10.7,4.8 10.7,10.7 0,1.1 -0.2,2.2 -0.5,3.3 l -0.6,1.9 2.1,-0.1 h 0.3 c 3.8,0 6.8,3.1 6.8,6.8 0,3.8 -3.1,6.8 -6.8,6.8 h -5.7 c -1.7,0 -2,2.7 0,2.7 h 5.7 c 5.2,0 9.5,-4.3 9.5,-9.5 -0.1,-4.8 -3.8,-8.8 -8.4,-9.4 z"
     class="st1"
     clip-path="url(#clipPath115-8)" />
  <path
     transform="translate(7.952,2.48)"
     style="fill:#72b8d4"
     inkscape:connector-curvature="0"
     id="path84-6"
     d="m 39.2,41 c 0.7,-0.9 0.5,-2.2 -0.4,-2.9 -0.9,-0.7 -2.2,-0.5 -2.9,0.4 -0.7,0.9 -0.5,2.2 0.4,2.9 0.9,0.7 2.2,0.5 2.9,-0.4 z"
     class="st0"
     clip-path="url(#clipPath139-1)" />
  <circle
     style="fill:#72b8d4"
     r="2.0999999"
     id="ellipse86-86"
     cy="46.550381"
     cx="-14.491513"
     class="st0"
     transform="rotate(-52.533,6.4886463,-6.8166805)"
     clip-path="url(#clipPath135-5)" />
  <path
     transform="translate(7.952,2.48)"
     style="fill:#72b8d4"
     inkscape:connector-curvature="0"
     id="path88-5"
     d="m 39.2,58.1 c 0.7,-0.9 0.5,-2.2 -0.4,-2.9 -0.9,-0.7 -2.2,-0.5 -2.9,0.4 -0.7,0.9 -0.5,2.2 0.4,2.9 0.9,0.7 2.2,0.6 2.9,-0.4 z"
     class="st0"
     clip-path="url(#clipPath131-62)" />
  <circle
     style="fill:#72b8d4"
     r="2.0999999"
     id="ellipse90-6"
     cy="56.946503"
     cx="-28.073774"
     class="st0"
     transform="rotate(-52.533,6.4886463,-6.8166805)"
     clip-path="url(#clipPath127-0)" />
  <circle
     style="fill:#72b8d4"
     r="2.0999999"
     id="ellipse92-2"
     cy="55.168217"
     cx="-18.638052"
     class="st0"
     transform="rotate(-52.57,6.4866031,-6.8101297)"
     clip-path="url(#clipPath123-61)" />
  <path
     transform="translate(7.7602422,3.1511522)"
     style="fill:#72b8d4"
     inkscape:connector-curvature="0"
     id="path94-8"
     d="m 23.4,49.6 c 0.7,-0.9 0.5,-2.2 -0.4,-2.9 -0.9,-0.7 -2.2,-0.5 -2.9,0.4 -0.7,0.9 -0.5,2.2 0.4,2.9 0.9,0.7 2.2,0.5 2.9,-0.4 z m 21.5,0 C 45.6,48.7 45.4,47.4 44.5,46.7 43.6,46 42.3,46.2 41.6,47.1 41,48 41.1,49.3 42,50 c 0.9,0.7 2.2,0.5 2.9,-0.4 z"
     class="st0"
     clip-path="url(#clipPath119-4)" />
  <path
     transform="translate(7.952,2.48)"
     style="fill:#ffffff"
     inkscape:connector-curvature="0"
     id="path96-8"
     d="m 50.9,22.3 c 0.2,-0.8 0.2,-1.6 0.2,-2.4 0,-7.4 -6,-13.4 -13.4,-13.4 -4.5,0 -8.7,2.3 -11.2,6 -1.2,-0.5 -2.4,-0.8 -3.6,-0.8 -5.1,0 -9.3,4.2 -9.3,9.3 v 0.3 c -4.1,1.4 -7,5.3 -7,9.7 0,5.6 4.6,10.2 10.2,10.2 h 5 c 1.6,0 1.5,-2.7 0,-2.7 h -5 c -4.2,0 -7.5,-3.4 -7.5,-7.5 0,-3.6 2.5,-6.7 6,-7.4 l 1.3,-0.2 -0.2,-1.3 c -0.1,-0.4 -0.1,-0.7 -0.1,-1.1 0,-3.6 3,-6.6 6.6,-6.6 1.2,0 2.4,0.3 3.5,1 l 1.2,0.7 0.7,-1.3 c 1.9,-3.5 5.5,-5.7 9.5,-5.7 5.9,0 10.7,4.8 10.7,10.7 0,1.1 -0.2,2.2 -0.5,3.3 l -0.6,1.9 2.1,-0.1 h 0.3 c 3.8,0 6.8,3.1 6.8,6.8 0,3.8 -3.1,6.8 -6.8,6.8 h -5.7 c -1.7,0 -2,2.7 0,2.7 h 5.7 c 5.2,0 9.5,-4.3 9.5,-9.5 -0.1,-4.8 -3.8,-8.8 -8.4,-9.4 z"
     class="st1"
     clip-path="url(#clipPath115-7)" />
  <path
     transform="translate(2.5625811,0.60141311)"
     style="fill:#72b8d4"
     inkscape:connector-curvature="0"
     id="path84-0"
     d="m 39.2,41 c 0.7,-0.9 0.5,-2.2 -0.4,-2.9 -0.9,-0.7 -2.2,-0.5 -2.9,0.4 -0.7,0.9 -0.5,2.2 0.4,2.9 0.9,0.7 2.2,0.5 2.9,-0.4 z"
     class="st0"
     clip-path="url(#clipPath139-7)" />
  <circle
     style="fill:#72b8d4"
     r="2.0999999"
     id="ellipse86-5"
     cy="46.550381"
     cx="-14.491513"
     class="st0"
     transform="rotate(-52.533,1.8906201,-2.2956084)"
     clip-path="url(#clipPath135-9)" />
  <path
     transform="translate(2.5625811,0.60141311)"
     style="fill:#72b8d4"
     inkscape:connector-curvature="0"
     id="path88-8"
     d="m 39.2,58.1 c 0.7,-0.9 0.5,-2.2 -0.4,-2.9 -0.9,-0.7 -2.2,-0.5 -2.9,0.4 -0.7,0.9 -0.5,2.2 0.4,2.9 0.9,0.7 2.2,0.6 2.9,-0.4 z"
     class="st0"
     clip-path="url(#clipPath131-0)" />
  <circle
     style="fill:#72b8d4"
     r="2.0999999"
     id="ellipse90-4"
     cy="56.946503"
     cx="-28.073774"
     class="st0"
     transform="rotate(-52.533,1.8906201,-2.2956084)"
     clip-path="url(#clipPath127-55)" />
  <circle
     style="fill:#72b8d4"
     r="2.0999999"
     id="ellipse92-7"
     cy="55.168217"
     cx="-18.638052"
     class="st0"
     transform="rotate(-52.57,1.8901245,-2.2934974)"
     clip-path="url(#clipPath123-0)" />
  <path
     transform="translate(4.2071707,-2.8231118)"
     style="fill:#72b8d4"
     inkscape:connector-curvature="0"
     id="path94-9"
     d="m 23.4,49.6 c 0.7,-0.9 0.5,-2.2 -0.4,-2.9 -0.9,-0.7 -2.2,-0.5 -2.9,0.4 -0.7,0.9 -0.5,2.2 0.4,2.9 0.9,0.7 2.2,0.5 2.9,-0.4 z m 21.5,0 C 45.6,48.7 45.4,47.4 44.5,46.7 43.6,46 42.3,46.2 41.6,47.1 41,48 41.1,49.3 42,50 c 0.9,0.7 2.2,0.5 2.9,-0.4 z"
     class="st0"
     clip-path="url(#clipPath119-0)" />
  <path
     transform="translate(2.5625811,0.60141311)"
     style="fill:#ffffff"
     inkscape:connector-curvature="0"
     id="path96-1"
     d="m 50.9,22.3 c 0.2,-0.8 0.2,-1.6 0.2,-2.4 0,-7.4 -6,-13.4 -13.4,-13.4 -4.5,0 -8.7,2.3 -11.2,6 -1.2,-0.5 -2.4,-0.8 -3.6,-0.8 -5.1,0 -9.3,4.2 -9.3,9.3 v 0.3 c -4.1,1.4 -7,5.3 -7,9.7 0,5.6 4.6,10.2 10.2,10.2 h 5 c 1.6,0 1.5,-2.7 0,-2.7 h -5 c -4.2,0 -7.5,-3.4 -7.5,-7.5 0,-3.6 2.5,-6.7 6,-7.4 l 1.3,-0.2 -0.2,-1.3 c -0.1,-0.4 -0.1,-0.7 -0.1,-1.1 0,-3.6 3,-6.6 6.6,-6.6 1.2,0 2.4,0.3 3.5,1 l 1.2,0.7 0.7,-1.3 c 1.9,-3.5 5.5,-5.7 9.5,-5.7 5.9,0 10.7,4.8 10.7,10.7 0,1.1 -0.2,2.2 -0.5,3.3 l -0.6,1.9 2.1,-0.1 h 0.3 c 3.8,0 6.8,3.1 6.8,6.8 0,3.8 -3.1,6.8 -6.8,6.8 h -5.7 c -1.7,0 -2,2.7 0,2.7 h 5.7 c 5.2,0 9.5,-4.3 9.5,-9.5 -0.1,-4.8 -3.8,-8.8 -8.4,-9.4 z"
     class="st1"
     clip-path="url(#clipPath115-3)" />
</svg>
