<?xml version="1.0" encoding="UTF-8" standalone="no"?>
<svg
   xmlns:dc="http://purl.org/dc/elements/1.1/"
   xmlns:cc="http://creativecommons.org/ns#"
   xmlns:rdf="http://www.w3.org/1999/02/22-rdf-syntax-ns#"
   xmlns:svg="http://www.w3.org/2000/svg"
   xmlns="http://www.w3.org/2000/svg"
   xmlns:sodipodi="http://sodipodi.sourceforge.net/DTD/sodipodi-0.dtd"
   xmlns:inkscape="http://www.inkscape.org/namespaces/inkscape"
   id="weather-icon-rain"
   class="weather-icon weather-icon-white rain"
   viewBox="0 0 64 64"
   version="1.1"
   sodipodi:docname="rain - Copy.svg"
   inkscape:version="0.92.1 r15371">
  <metadata
     id="metadata22">
    <rdf:RDF>
      <cc:Work
         rdf:about="">
        <dc:format>image/svg+xml</dc:format>
        <dc:type
           rdf:resource="http://purl.org/dc/dcmitype/StillImage" />
        <dc:title></dc:title>
      </cc:Work>
    </rdf:RDF>
  </metadata>
  <defs
     id="defs20" />
  <sodipodi:namedview
     pagecolor="#ffffff"
     bordercolor="#666666"
     borderopacity="1"
     objecttolerance="10"
     gridtolerance="10"
     guidetolerance="10"
     inkscape:pageopacity="0"
     inkscape:pageshadow="2"
     inkscape:window-width="2736"
     inkscape:window-height="1699"
     id="namedview18"
     showgrid="false"
     inkscape:pagecheckerboard="true"
     inkscape:zoom="21.75"
     inkscape:cx="25.356322"
     inkscape:cy="28.200985"
     inkscape:window-x="-13"
     inkscape:window-y="-13"
     inkscape:window-maximized="1"
     inkscape:current-layer="weather-icon-rain" />
  <style
     id="style10">.st0{fill:#2885C7;} .st1{fill:#FFFFFF;}</style>
  <path
     style="fill:#ffffff"
     inkscape:connector-curvature="0"
     id="path14"
     d="m 50.9,22.4 c 0.1,-0.8 0.2,-1.6 0.2,-2.4 0,-7.4 -6,-13.4 -13.4,-13.4 -4.5,0 -8.7,2.3 -11.2,6 -1.2,-0.5 -2.4,-0.8 -3.7,-0.8 -5.1,0 -9.3,4.2 -9.3,9.3 v 0.3 c -4.1,1.4 -7,5.2 -7,9.7 0,5.6 4.6,10.2 10.2,10.2 h 5 c 1.6,0 1.5,-2.7 0,-2.7 h -5 c -4.2,0 -7.5,-3.4 -7.5,-7.5 0,-3.6 2.5,-6.7 6.1,-7.4 l 1.3,-0.3 -0.2,-1.3 c -0.1,-0.4 -0.1,-0.7 -0.1,-1.1 0,-3.6 3,-6.6 6.6,-6.6 1.2,0 2.4,0.3 3.5,1 l 1.2,0.7 0.7,-1.3 c 1.9,-3.5 5.5,-5.7 9.5,-5.7 5.9,0 10.7,4.8 10.7,10.7 0,1.1 -0.2,2.2 -0.5,3.3 l -0.6,1.9 2.1,-0.1 h 0.3 c 3.8,0 6.8,3.1 6.8,6.8 0,3.8 -3.1,6.8 -6.8,6.8 h -5.7 c -1.7,0 -2,2.7 0,2.7 h 5.7 c 5.2,0 9.5,-4.3 9.5,-9.5 C 59.2,27 55.6,23 50.9,22.4 Z"
     class="st1" />
  <g
     id="g3696"
     style="fill:#2885c7;fill-opacity:1"
     transform="matrix(0.53757471,0.92157496,-1.2761845,0.38820046,65.708232,-15.743032)">
    <path
       style="fill:#2885c7;fill-opacity:1"
       inkscape:connector-curvature="0"
       class="st0"
       d="m 25.5,59.3 c -0.2,0 -0.3,0 -0.5,-0.1 -0.7,-0.3 -1,-1.1 -0.7,-1.7 l 9.3,-21.9 c 0.3,-0.7 1.1,-1 1.7,-0.7 0.7,0.3 1,1.1 0.7,1.7 L 26.7,58.5 C 26.5,59 26,59.3 25.5,59.3 Z M 34,53.5 c -0.2,0 -0.3,0 -0.5,-0.1 -0.7,-0.3 -1,-1.1 -0.7,-1.7 l 6.6,-16 c 0.3,-0.7 1.1,-1 1.7,-0.7 0.7,0.3 1,1.1 0.7,1.7 l -6.6,16 C 35,53.2 34.5,53.5 34,53.5 Z m -12.1,0 c -0.2,0 -0.3,0 -0.5,-0.1 -0.7,-0.3 -1,-1.1 -0.7,-1.7 l 6.6,-16 c 0.3,-0.7 1.1,-1 1.7,-0.7 0.7,0.3 1,1.1 0.7,1.7 l -6.6,16 c -0.2,0.5 -0.6,0.8 -1.2,0.8 z"
       id="path12" />
  </g>
</svg>
