<?xml version="1.0" encoding="UTF-8" standalone="no"?>
<svg
   xmlns:dc="http://purl.org/dc/elements/1.1/"
   xmlns:cc="http://creativecommons.org/ns#"
   xmlns:rdf="http://www.w3.org/1999/02/22-rdf-syntax-ns#"
   xmlns:svg="http://www.w3.org/2000/svg"
   xmlns="http://www.w3.org/2000/svg"
   xmlns:sodipodi="http://sodipodi.sourceforge.net/DTD/sodipodi-0.dtd"
   xmlns:inkscape="http://www.inkscape.org/namespaces/inkscape"
   id="weather-icon-mostlycloudy"
   class="weather-icon weather-icon-white mostlycloudy"
   viewBox="0 0 64 64"
   version="1.1"
   sodipodi:docname="mostlycloudy-night2.svg"
   inkscape:version="0.92.1 r15371">
  <metadata
     id="metadata16">
    <rdf:RDF>
      <cc:Work
         rdf:about="">
        <dc:format>image/svg+xml</dc:format>
        <dc:type
           rdf:resource="http://purl.org/dc/dcmitype/StillImage" />
        <dc:title></dc:title>
      </cc:Work>
    </rdf:RDF>
  </metadata>
  <defs
     id="defs14">
    <clipPath
       id="clipPath4556"
       clipPathUnits="userSpaceOnUse">
      <path
         inkscape:connector-curvature="0"
         id="path4554"
         d="M 11,45 H 48 V 5 H 11 Z" />
    </clipPath>
    <clipPath
       id="clipPath4562"
       clipPathUnits="userSpaceOnUse">
      <path
         inkscape:connector-curvature="0"
         id="path4560"
         d="M 11.289,44.656 H 47.461 V 29.844 H 11.289 Z M 36.387,42.211 H 47.605 V 5.824 H 36.387 Z M 29.031,38.367 44.93,27.094 40.938,21.461 25.039,32.734 Z" />
    </clipPath>
    <clipPath
       id="clipPath4572"
       clipPathUnits="userSpaceOnUse">
      <path
         inkscape:connector-curvature="0"
         id="path4570"
         d="M 22,19 H 44 V 42 H 22 Z" />
    </clipPath>
    <clipPath
       id="clipPath4584"
       clipPathUnits="userSpaceOnUse">
      <path
         inkscape:connector-curvature="0"
         id="path4582"
         d="m 21.906,30.031 h 3.352 v -2.66 h -3.352 z" />
    </clipPath>
    <clipPath
       id="clipPath4594"
       clipPathUnits="userSpaceOnUse">
      <path
         inkscape:connector-curvature="0"
         id="path4592"
         d="M 11,19 H 37 V 33 H 11 Z" />
    </clipPath>
    <clipPath
       id="clipPath4606"
       clipPathUnits="userSpaceOnUse">
      <path
         inkscape:connector-curvature="0"
         id="path4604"
         d="m 33,24 h 5 v -6 h -5 z" />
    </clipPath>
    <clipPath
       id="clipPath4612"
       clipPathUnits="userSpaceOnUse">
      <path
         inkscape:connector-curvature="0"
         id="path4610"
         d="m 36.363,23.016 1.2,-3.133 -2.485,-0.949 -1.199,3.132 z" />
    </clipPath>
    <clipPath
       id="clipPath4622"
       clipPathUnits="userSpaceOnUse">
      <path
         inkscape:connector-curvature="0"
         id="path4620"
         d="M 23,6 H 40 V 30 H 23 Z" />
    </clipPath>
  </defs>
  <sodipodi:namedview
     pagecolor="#ffffff"
     bordercolor="#666666"
     borderopacity="1"
     objecttolerance="10"
     gridtolerance="10"
     guidetolerance="10"
     inkscape:pageopacity="0"
     inkscape:pageshadow="2"
     inkscape:window-width="2736"
     inkscape:window-height="1699"
     id="namedview12"
     showgrid="false"
     inkscape:pagecheckerboard="true"
     inkscape:zoom="29.5"
     inkscape:cx="37.41994"
     inkscape:cy="42.659428"
     inkscape:window-x="-13"
     inkscape:window-y="-13"
     inkscape:window-maximized="1"
     inkscape:current-layer="weather-icon-mostlycloudy" />
  <style
     id="style2">.st0{fill:#F4A71D;} .st1{fill:#FFFFFF;}</style>
  <g
     transform="matrix(0.11862439,0,0,0.11862439,23.493909,6.7636078)"
     id="g6" />
  <g
     transform="matrix(0.11862439,0,0,0.11862439,23.493909,6.7636078)"
     id="g8" />
  <g
     transform="matrix(0.11862439,0,0,0.11862439,23.493909,6.7636078)"
     id="g10" />
  <g
     transform="matrix(0.11862439,0,0,0.11862439,23.493909,6.7636078)"
     id="g12" />
  <g
     transform="matrix(0.11862439,0,0,0.11862439,23.493909,6.7636078)"
     id="g14" />
  <g
     transform="matrix(0.11862439,0,0,0.11862439,23.493909,6.7636078)"
     id="g16" />
  <g
     transform="matrix(0.11862439,0,0,0.11862439,23.493909,6.7636078)"
     id="g18" />
  <g
     transform="matrix(0.11862439,0,0,0.11862439,23.493909,6.7636078)"
     id="g20" />
  <g
     transform="matrix(0.11862439,0,0,0.11862439,23.493909,6.7636078)"
     id="g22" />
  <g
     transform="matrix(0.11862439,0,0,0.11862439,23.493909,6.7636078)"
     id="g24" />
  <g
     transform="matrix(0.11862439,0,0,0.11862439,23.493909,6.7636078)"
     id="g26" />
  <g
     transform="matrix(0.11862439,0,0,0.11862439,23.493909,6.7636078)"
     id="g28" />
  <g
     transform="matrix(0.11862439,0,0,0.11862439,23.493909,6.7636078)"
     id="g30" />
  <g
     transform="matrix(0.11862439,0,0,0.11862439,23.493909,6.7636078)"
     id="g32" />
  <g
     transform="matrix(0.11862439,0,0,0.11862439,23.493909,6.7636078)"
     id="g34" />
  <g
     id="g4756">
    <path
       d="m 34.800781,26.300781 c -4.1,0 -7.901562,1.998438 -10.101562,5.398438 C 23.699219,31.199219 22.6,31 21.5,31 16.8,31 13,34.8 13,39.5 v 0.199219 C 9.3,40.899219 6.6992188,44.5 6.6992188,48.5 6.6992188,53.6 10.9,57.800781 16,57.800781 h 29.599609 c 4.8,0 8.601172,-3.901562 8.701172,-8.601562 0,-4.4 -3.3,-7.99961 -7.5,-8.59961 C 46.900781,39.899609 47,39.2 47,38.5 47,31.8 41.500781,26.300781 34.800781,26.300781 Z M 34.900391,29 c 5.2,0 9.5,4.2 9.5,9.5 0,1 -0.2,2.000391 -0.5,2.900391 l -0.59961,1.90039 2,-0.101562 h 0.298828 c 3.3,0 6,2.7 6,6 0,3.3 -2.7,6 -6,6 H 16 C 12.3,55.199219 9.3007812,52.2 9.3007812,48.5 c 1e-7,-3.1 2.1988278,-5.9 5.2988278,-6.5 L 15.900391,41.800781 15.699219,40.5 c -0.1,-0.4 -0.09961,-0.7 -0.09961,-1 0,-3.2 2.600782,-5.800781 5.800782,-5.800781 1.1,0 2.199218,0.2 3.199218,1 L 25.800781,35.400391 26.5,34.099609 C 28.1,30.999609 31.400391,29 34.900391,29 Z"
       style="fill:#ffffff"
       id="path6"
       inkscape:connector-curvature="0" />
    <g
       id="g4546"
       inkscape:label="moon2"
       transform="matrix(1.3333333,0,0,-1.3333333,0.04109432,64.258741)">
      <g
         id="g4548" />
      <g
         id="g4550">
        <g
           id="g4552"
           clip-path="url(#clipPath4556)">
          <g
             id="g4558"
             clip-path="url(#clipPath4562)">
            <g
               id="g4564">
              <g
                 id="g4566">
                <g
                   id="g4568"
                   clip-path="url(#clipPath4572)">
                  <g
                     id="g4574">
                    <path
                       inkscape:connector-curvature="0"
                       id="path4576"
                       d="m 43.457,26.703 c -0.357103,1.370219 -1.795342,0.374007 -2.636619,0.170287 -3.295128,-0.886979 -7.029911,0.775344 -8.590129,3.809444 -1.651221,2.970876 -0.988009,7.0179 1.589748,9.255269 0.790347,0.678669 -0.136213,1.917411 -1.050362,1.54252 -3.99275,-0.26173 -7.74222,-2.911456 -9.195638,-6.66052 -1.548314,-3.650969 -0.821092,-8.097929 1.752672,-11.103746 2.750494,-3.309921 7.569686,-4.698208 11.64876,-3.288021 2.859609,0.974849 5.399058,3.154162 6.491443,6.000142 l 0.0056,0.135766 z M 37.43,22.555 c -3.660305,-1.827525 -8.452799,-0.667541 -10.926831,2.572341 -2.449472,3.037789 -2.610376,7.6988 -0.250815,10.832333 C 27.398061,37.57016 29.086174,38.785568 30.988,39.332 28.797924,36.008277 29.103575,31.317436 31.673465,28.28534 33.75827,25.700987 37.265884,24.394771 40.535,24.969 39.696023,23.9464 38.62608,23.118648 37.43,22.555 Z"
                       style="fill:#f4a71d;fill-opacity:1;fill-rule:nonzero;stroke:none" />
                  </g>
                </g>
              </g>
            </g>
          </g>
        </g>
      </g>
      <g
         id="g4578">
        <g
           id="g4580"
           clip-path="url(#clipPath4584)">
          <g
             id="g4586">
            <g
               id="g4588">
              <g
                 id="g4590"
                 clip-path="url(#clipPath4594)">
                <g
                   id="g4596">
                  <path
                     inkscape:connector-curvature="0"
                     id="path4598"
                     d="m 18.328,25.906 c -0.598353,-0.632455 -1.358456,-0.06904 -1.794952,0.438015 -0.542694,0.565383 -1.206512,1.033568 -1.65236,1.677157 -0.4601,1.067237 1.133609,1.731014 1.698047,0.803236 0.620937,-0.634166 1.351418,-1.17626 1.888203,-1.881439 C 18.636508,26.610873 18.595281,26.176124 18.328,25.906 Z m 13.762,2.199 c -0.704223,-0.690703 -1.312828,-1.496261 -2.087641,-2.102438 -1.062557,-0.473904 -1.779723,1.146956 -0.810586,1.708002 0.631528,0.616749 1.171055,1.344027 1.872665,1.87692 0.871169,0.401991 1.79509,-0.785326 1.025562,-1.482484 z m -7.684,0.661 c -0.767499,-0.773416 -1.895725,0.09493 -1.647977,1.041893 0.01405,0.843272 -0.129391,1.702225 0.0074,2.533576 0.403941,1.092218 2.083516,0.427267 1.777997,-0.641539 0.01696,-0.873191 0.05984,-1.763405 0.06369,-2.623555 l -0.08777,-0.167234 z m 11.395,-8.282 c -0.573589,-0.472729 -1.375628,-0.240676 -2.065161,-0.324005 -0.717972,0.04538 -1.704416,-0.297106 -2.105151,0.513927 -0.346602,0.932182 0.61388,1.442435 1.400037,1.30226 0.801773,-0.01361 1.618405,0.12285 2.408744,-0.0095 C 36.011812,21.780957 36.23909,20.899181 35.801,20.484 Z M 16.059,19.852 c -0.597434,-0.467107 -1.419439,-0.257772 -2.130384,-0.358031 -0.68214,0.01101 -1.6197,-0.29459 -1.986835,0.494765 -0.351301,0.931666 0.615783,1.442651 1.400938,1.303664 0.801596,-0.01434 1.618699,0.125904 2.408343,-0.01098 C 16.350387,21.083327 16.500145,20.282176 16.059,19.852 Z"
                     style="fill:#f4a71d;fill-opacity:1;fill-rule:nonzero;stroke:none" />
                </g>
              </g>
            </g>
          </g>
        </g>
      </g>
      <g
         id="g4600">
        <g
           id="g4602"
           clip-path="url(#clipPath4606)">
          <g
             id="g4608"
             clip-path="url(#clipPath4612)">
            <g
               id="g4614">
              <g
                 id="g4616">
                <g
                   id="g4618"
                   clip-path="url(#clipPath4622)">
                  <g
                     id="g4624">
                    <path
                       inkscape:connector-curvature="0"
                       id="path4626"
                       d="m 31.23,24.887 c -0.804376,0.329574 -0.548504,1.241756 -0.232885,1.829405 0.334369,0.709178 0.530878,1.499247 0.976213,2.143783 0.834534,0.807427 2.021682,-0.440463 1.359968,-1.30051 C 32.961669,26.753396 32.716253,25.876883 32.247281,25.124516 31.997692,24.847796 31.576839,24.732163 31.23,24.887 Z m 6.973,-12.071 c -0.89683,0.411213 -1.865041,0.695085 -2.709437,1.200172 -0.822432,0.822324 0.436863,2.070902 1.30667,1.367911 0.801408,-0.369614 1.671909,-0.616087 2.421064,-1.079255 C 39.906269,13.634022 39.130892,12.346201 38.203,12.816 Z m -2.129,7.414 c -0.997658,0.437362 -0.587646,1.804917 0.384766,1.910308 0.792756,0.288347 1.543922,0.729133 2.36939,0.898723 1.167994,0.01124 1.140557,-1.796457 0.03138,-1.892398 C 38.051105,20.819452 37.23624,20.461359 36.435125,20.1515 l -0.187734,0.02256 z M 32.414,6.625 c -0.647021,0.3677886 -0.718047,1.2013302 -1.043467,1.8165399 -0.215465,0.6864689 -0.886591,1.4846772 -0.27258,2.1494761 0.744179,0.657028 1.569493,-0.06099 1.71834,-0.8444813 C 33.089326,8.9929494 33.50662,8.2786886 33.665781,7.4937344 33.697223,6.8940916 32.957426,6.3689449 32.414,6.625 Z M 24.766,24.84 c -0.640513,0.371346 -0.732875,1.195111 -1.070227,1.80559 -0.231363,0.661672 -0.887625,1.441524 -0.273398,2.089019 0.744359,0.658097 1.569005,-0.06048 1.717994,-0.844043 0.272968,-0.753326 0.690507,-1.467233 0.849412,-2.251988 C 26.021725,25.009928 25.322426,24.580541 24.766,24.84 Z"
                       style="fill:#f4a71d;fill-opacity:1;fill-rule:nonzero;stroke:none" />
                  </g>
                </g>
              </g>
            </g>
          </g>
        </g>
      </g>
    </g>
  </g>
</svg>
